<svg width="16" height="16" viewBox="0 0 16 16" fill="none" xmlns="http://www.w3.org/2000/svg">
<path d="M13.9925 1.07155L13.9925 1.07156L1.49156 5.80312L1.48327 5.80626V5.80538C1.34617 5.85949 1.22872 5.95404 1.14657 6.07653C1.06324 6.20079 1.0203 6.34773 1.02362 6.4973C1.02693 6.64687 1.07633 6.79177 1.16507 6.91221C1.25378 7.03259 1.37747 7.12268 1.51927 7.17017C1.51933 7.17019 1.51939 7.17021 1.51945 7.17023L1.53191 7.17417L1.53408 7.17486L1.53403 7.17496L5.82347 9.00664C5.90288 9.03052 5.98716 9.03327 6.06797 9.0146C6.14919 8.99583 6.22406 8.9561 6.28512 8.89935L13.1708 2.48338C13.1709 2.48328 13.171 2.48318 13.1711 2.48308C13.1937 2.46053 13.2205 2.44263 13.25 2.4304C13.2797 2.41812 13.3115 2.4118 13.3436 2.4118C13.3757 2.4118 13.4075 2.41812 13.4371 2.4304C13.4668 2.44268 13.4937 2.46069 13.5164 2.48338C13.5391 2.50608 13.5571 2.53302 13.5694 2.56267C13.5817 2.59233 13.588 2.62411 13.588 2.6562C13.588 2.6883 13.5817 2.72008 13.5694 2.74973C13.5572 2.77926 13.5393 2.8061 13.5167 2.82873C13.5166 2.82883 13.5165 2.82893 13.5164 2.82903L7.10012 9.71153L13.9925 1.07155ZM13.9925 1.07155C14.1235 1.02176 14.266 1.01087 14.4029 1.0402C14.5399 1.06952 14.6654 1.1378 14.7645 1.23681M13.9925 1.07155L14.7645 1.23681M14.7645 1.23681C14.8636 1.33628 14.9317 1.46232 14.9607 1.5997C14.9896 1.73707 14.9781 1.8799 14.9276 2.0109L14.9276 2.01103L10.1968 14.5081L14.7645 1.23681ZM9.46858 15H9.49983C9.65427 15.0008 9.80542 14.9552 9.9336 14.8691C10.0618 14.7829 10.1611 14.6602 10.2186 14.5168L10.1967 14.5085L10.1967 14.5083C10.141 14.6472 10.0447 14.7661 9.92052 14.8496C9.79624 14.9332 9.64971 14.9774 9.49996 14.9765H9.49983H9.4691M9.46858 15L9.46963 14.9765C9.46945 14.9765 9.46928 14.9765 9.4691 14.9765M9.46858 15V14.9765H9.4691M9.46858 15C9.16264 14.9862 8.90952 14.7818 8.80952 14.4921C8.80733 14.4862 8.80545 14.4806 8.80358 14.4743L6.97077 10.1812M9.4691 14.9765C9.17379 14.963 8.92874 14.7657 8.83168 14.4845L8.83151 14.484C8.82949 14.4786 8.82777 14.4734 8.82603 14.4676L8.82617 14.4676L8.82513 14.4651L6.99283 10.1732M6.99283 10.1732C6.99295 10.1736 6.99307 10.174 6.99319 10.1744L6.97077 10.1812M6.99283 10.1732C6.96895 10.0938 6.9662 10.0095 6.98487 9.92869C7.00363 9.84748 7.04336 9.77262 7.1001 9.71156L6.96204 9.92342C6.94235 10.0086 6.94536 10.0975 6.97077 10.1812M6.99283 10.1732L6.99232 10.172L6.97077 10.1812" fill="black" stroke="#112211" stroke-width="0.046875"/>
</svg>
